<svg id="svg" version="1.1" xmlns="http://www.w3.org/2000/svg" xmlns:xlink="http://www.w3.org/1999/xlink" width="400" height="137.77777777777777" viewBox="0, 0, 400,137.77777777777777"><g id="svgg"><path id="path0" d="M24.634 0.180 C 24.594 0.301,22.577 0.408,18.496 0.505 C 15.152 0.585,11.517 0.694,10.417 0.747 C 7.106 0.908,2.494 1.168,1.208 1.268 L 0.000 1.362 0.000 69.514 L 0.000 137.667 200.000 137.667 L 400.000 137.667 400.000 68.833 L 400.000 0.000 212.347 0.000 C 78.164 0.000,24.677 0.051,24.634 0.180 M349.012 6.399 C 349.340 6.592,350.004 6.975,350.488 7.250 C 350.972 7.525,351.667 7.994,352.033 8.292 C 352.399 8.590,352.768 8.833,352.852 8.833 C 352.937 8.833,353.324 9.036,353.712 9.284 C 354.099 9.532,354.642 9.858,354.917 10.009 C 355.192 10.160,355.829 10.521,356.333 10.810 C 356.837 11.099,357.644 11.532,358.125 11.771 C 359.594 12.501,359.321 13.379,357.232 14.649 C 356.763 14.934,356.266 15.167,356.127 15.167 C 355.988 15.167,355.778 15.282,355.661 15.423 C 355.544 15.564,355.087 15.835,354.646 16.025 C 354.205 16.215,353.757 16.474,353.652 16.602 C 353.546 16.729,353.330 16.833,353.171 16.833 C 353.013 16.833,352.579 17.054,352.208 17.323 C 351.836 17.592,351.262 17.863,350.931 17.925 C 350.525 18.001,350.243 18.185,350.063 18.490 C 349.693 19.116,347.703 19.902,347.084 19.667 L 346.655 19.504 346.735 13.544 C 346.815 7.540,346.903 6.179,347.225 5.969 C 347.488 5.799,348.340 6.004,349.012 6.399 M349.747 12.830 C 349.743 15.030,349.849 15.252,350.648 14.715 C 350.888 14.555,351.496 14.222,352.000 13.975 C 354.065 12.966,354.044 12.912,350.934 11.266 C 349.725 10.626,349.750 10.592,349.747 12.830 M377.293 16.668 C 377.344 17.546,377.103 18.073,376.836 17.667 C 376.529 17.199,376.624 15.801,376.958 15.864 C 377.176 15.906,377.261 16.109,377.293 16.668 M380.333 16.583 C 380.333 16.721,380.339 16.888,380.346 16.954 C 380.353 17.021,380.278 17.102,380.179 17.135 C 380.081 17.168,380.000 17.001,380.000 16.764 C 380.000 16.527,380.075 16.333,380.167 16.333 C 380.258 16.333,380.333 16.446,380.333 16.583 M377.735 18.250 C 377.812 18.554,377.951 18.667,378.253 18.667 C 378.761 18.667,378.815 19.148,378.354 19.565 C 377.991 19.893,377.333 19.040,377.333 18.240 C 377.333 17.709,377.601 17.716,377.735 18.250 M366.000 19.073 C 366.627 19.473,367.038 19.747,368.083 20.457 C 368.450 20.706,368.893 20.986,369.067 21.080 C 369.843 21.496,369.820 22.539,369.025 22.935 C 368.812 23.041,368.555 23.212,368.453 23.314 C 368.350 23.416,368.150 23.500,368.008 23.501 C 367.866 23.501,367.158 23.801,366.434 24.167 C 364.010 25.394,363.876 25.244,364.158 21.618 C 364.422 18.239,364.508 18.119,366.000 19.073 M358.859 26.680 C 359.123 26.821,359.171 26.958,359.081 27.305 C 358.943 27.836,358.955 30.972,359.101 32.517 C 359.184 33.399,359.156 33.635,358.960 33.710 C 358.676 33.819,355.142 32.134,354.446 31.557 C 354.186 31.342,353.844 31.167,353.685 31.167 C 352.769 31.167,352.448 30.172,353.208 29.689 C 354.896 28.616,355.546 28.110,355.625 27.808 C 355.691 27.555,355.815 27.489,356.116 27.547 C 356.403 27.602,356.714 27.461,357.192 27.062 C 357.898 26.472,358.299 26.381,358.859 26.680 M356.660 28.493 C 356.343 28.765,356.030 28.990,355.966 28.993 C 355.901 28.997,355.676 29.169,355.466 29.375 C 355.255 29.581,354.896 29.879,354.667 30.037 L 354.250 30.324 354.643 30.662 C 354.860 30.848,355.148 31.000,355.284 31.000 C 355.421 31.000,355.731 31.137,355.974 31.304 C 357.207 32.152,358.472 32.048,357.985 31.139 C 357.891 30.963,357.801 30.185,357.784 29.410 C 357.749 27.788,357.614 27.678,356.660 28.493 M379.041 30.336 C 379.541 30.802,379.247 32.388,378.556 32.947 C 377.819 33.543,376.167 32.352,376.167 31.224 C 376.167 30.246,378.253 29.602,379.041 30.336 M26.735 92.250 C 26.885 92.479,27.089 92.667,27.188 92.667 C 27.287 92.667,27.679 92.876,28.059 93.133 C 28.439 93.389,28.863 93.653,29.000 93.718 C 29.137 93.783,29.475 93.984,29.750 94.163 C 30.025 94.343,30.475 94.604,30.750 94.744 C 31.025 94.885,31.475 95.148,31.750 95.329 C 32.025 95.510,32.662 95.877,33.167 96.145 C 33.671 96.412,34.287 96.821,34.536 97.053 C 34.785 97.285,35.142 97.523,35.328 97.582 C 35.835 97.742,35.807 98.766,35.292 98.930 C 35.085 98.995,34.587 99.300,34.184 99.608 C 33.782 99.915,33.322 100.167,33.163 100.167 C 33.004 100.167,32.781 100.279,32.667 100.417 C 32.553 100.554,32.396 100.667,32.318 100.667 C 32.240 100.667,31.556 101.025,30.797 101.464 C 30.038 101.902,29.079 102.442,28.667 102.663 C 28.254 102.884,27.818 103.163,27.696 103.282 C 27.575 103.402,27.362 103.500,27.223 103.500 C 27.084 103.500,26.846 103.651,26.693 103.836 C 26.271 104.349,25.163 104.367,24.906 103.865 C 24.714 103.490,24.736 93.476,24.931 92.534 C 25.083 91.800,26.313 91.606,26.735 92.250 M27.657 96.690 C 27.651 96.723,27.632 97.388,27.615 98.167 L 27.583 99.583 28.029 99.635 C 28.542 99.694,29.498 99.239,30.315 98.546 L 30.880 98.067 29.858 97.458 C 28.991 96.941,27.690 96.488,27.657 96.690 M51.748 100.663 C 51.886 100.887,51.521 101.533,51.325 101.411 C 51.070 101.254,51.137 100.500,51.407 100.500 C 51.539 100.500,51.692 100.573,51.748 100.663 M53.235 100.601 C 53.600 100.741,53.396 101.000,52.920 101.000 C 52.242 101.000,51.871 100.802,52.262 100.649 C 52.675 100.488,52.910 100.476,53.235 100.601 M54.974 101.147 C 55.160 101.265,55.161 101.348,54.975 101.644 C 54.714 102.063,54.662 102.072,54.255 101.774 C 53.651 101.332,54.331 100.739,54.974 101.147 M52.033 102.700 C 51.878 102.856,51.833 102.811,51.833 102.500 C 51.833 102.189,51.878 102.144,52.033 102.300 C 52.189 102.456,52.189 102.544,52.033 102.700 M53.971 102.723 C 54.000 102.876,53.903 103.048,53.755 103.104 C 53.399 103.241,53.326 103.146,53.444 102.694 C 53.554 102.276,53.887 102.294,53.971 102.723 M53.055 103.375 C 53.316 103.566,53.318 103.615,53.077 103.958 C 52.675 104.533,52.333 104.437,52.333 103.750 C 52.333 103.127,52.556 103.011,53.055 103.375 M42.132 103.652 C 42.472 103.828,42.900 104.109,43.083 104.277 C 43.267 104.446,43.696 104.771,44.038 105.000 C 45.730 106.136,45.524 106.772,43.071 107.981 C 39.783 109.602,39.441 109.227,40.202 104.833 C 40.482 103.215,40.849 102.991,42.132 103.652 M35.425 110.347 C 35.487 110.446,35.561 111.236,35.590 112.102 C 35.620 112.968,35.732 113.944,35.840 114.270 C 36.363 115.855,35.323 116.955,34.232 115.970 C 34.039 115.796,33.607 115.577,33.274 115.485 C 32.840 115.365,32.667 115.225,32.667 114.992 C 32.667 114.579,32.929 114.581,33.750 115.000 C 34.344 115.303,35.333 115.458,35.333 115.248 C 35.333 115.201,35.262 115.032,35.175 114.873 C 35.087 114.714,34.969 114.076,34.911 113.457 C 34.778 112.023,34.525 111.838,33.305 112.276 C 32.258 112.653,31.759 113.283,31.922 114.024 L 32.036 114.544 31.393 114.427 C 29.841 114.145,29.835 113.298,31.378 112.540 C 31.949 112.260,32.649 111.801,32.934 111.520 C 33.892 110.573,35.188 109.963,35.425 110.347 M53.421 113.566 C 54.043 114.515,53.361 116.383,52.553 115.944 C 52.295 115.803,51.875 115.644,51.619 115.590 C 50.473 115.345,50.716 114.001,52.000 113.486 C 52.991 113.089,53.112 113.096,53.421 113.566 " stroke="none" fill="#f3fbf9" fill-rule="evenodd"></path><path id="path1" d="M347.652 7.194 C 347.519 7.443,347.453 9.271,347.438 13.152 L 347.417 18.750 347.840 18.799 C 348.085 18.828,348.522 18.674,348.875 18.434 C 349.211 18.206,349.845 17.841,350.284 17.623 C 350.977 17.280,353.359 15.965,356.398 14.250 C 358.543 13.039,358.563 12.860,356.678 11.802 C 355.193 10.969,353.823 10.150,352.773 9.468 C 352.235 9.119,351.733 8.833,351.656 8.833 C 351.579 8.833,351.194 8.622,350.800 8.363 C 348.155 6.628,347.988 6.566,347.652 7.194 M351.223 10.545 C 355.209 12.924,355.244 13.095,352.083 14.690 C 351.808 14.829,351.180 15.156,350.688 15.416 C 349.184 16.211,349.005 15.866,349.152 12.452 C 349.277 9.514,349.363 9.435,351.223 10.545 M364.608 20.775 C 364.296 24.465,364.329 24.509,366.609 23.423 C 368.693 22.430,369.033 22.079,368.441 21.523 C 368.233 21.327,368.002 21.167,367.930 21.167 C 367.857 21.167,367.525 20.952,367.191 20.689 C 366.490 20.138,365.287 19.500,364.948 19.500 C 364.779 19.500,364.686 19.848,364.608 20.775 M377.538 30.840 C 376.826 31.126,376.926 32.015,377.698 32.260 C 378.380 32.476,378.925 31.449,378.405 30.929 C 378.109 30.633,378.065 30.628,377.538 30.840 M25.603 93.292 C 25.400 94.320,25.325 102.873,25.517 103.104 C 25.893 103.557,27.465 102.833,31.934 100.146 C 32.677 99.699,33.330 99.333,33.384 99.333 C 33.439 99.333,33.825 99.103,34.242 98.822 C 34.960 98.337,35.242 97.833,34.795 97.833 C 34.587 97.833,33.918 97.444,30.884 95.557 C 29.949 94.976,29.140 94.500,29.086 94.500 C 29.031 94.500,28.597 94.237,28.121 93.917 C 27.644 93.596,27.169 93.333,27.064 93.333 C 26.960 93.333,26.781 93.221,26.667 93.083 C 26.309 92.652,25.706 92.770,25.603 93.292 M28.786 96.113 C 29.408 96.450,30.179 96.928,30.500 97.174 C 30.821 97.421,31.252 97.675,31.458 97.739 C 32.130 97.948,31.923 98.255,30.499 99.155 C 28.965 100.126,27.824 100.663,27.292 100.665 L 26.833 100.667 26.833 98.283 C 26.833 95.157,26.895 95.088,28.786 96.113 M41.141 104.448 C 40.869 104.776,40.653 107.146,40.860 107.542 C 41.087 107.977,41.614 107.899,42.970 107.229 C 44.299 106.573,44.574 106.236,44.071 105.885 C 43.894 105.762,43.388 105.396,42.945 105.072 C 41.842 104.264,41.416 104.116,41.141 104.448 M52.277 114.409 C 51.805 114.767,51.990 115.241,52.626 115.302 C 53.144 115.352,53.167 115.330,53.167 114.761 C 53.167 114.105,52.846 113.978,52.277 114.409 " stroke="none" fill="#7aea27" fill-rule="evenodd"></path><path id="path2" d="M347.342 6.728 C 347.105 7.351,347.051 18.951,347.284 19.184 C 347.479 19.379,348.358 19.005,350.417 17.850 C 350.875 17.593,351.700 17.138,352.250 16.838 C 352.800 16.539,353.802 15.984,354.477 15.605 C 355.152 15.227,356.183 14.652,356.769 14.328 C 359.090 13.046,359.051 12.840,356.167 11.208 C 355.846 11.026,354.046 9.957,352.167 8.831 C 347.737 6.178,347.577 6.109,347.342 6.728 M349.263 7.363 C 349.714 7.655,350.406 8.105,350.800 8.363 C 351.194 8.622,351.579 8.833,351.656 8.833 C 351.733 8.833,352.235 9.119,352.773 9.468 C 353.823 10.150,355.193 10.969,356.678 11.802 C 358.563 12.860,358.543 13.039,356.398 14.250 C 353.359 15.965,350.977 17.280,350.284 17.623 C 349.845 17.841,349.211 18.206,348.875 18.434 C 348.522 18.674,348.085 18.828,347.840 18.799 L 347.417 18.750 347.438 13.152 C 347.464 6.286,347.486 6.215,349.263 7.363 M349.500 9.997 C 349.306 10.119,349.228 10.668,349.152 12.452 C 349.005 15.866,349.184 16.211,350.688 15.416 C 351.180 15.156,351.808 14.829,352.083 14.690 C 354.811 13.313,354.965 12.876,353.132 11.720 C 350.327 9.952,349.898 9.748,349.500 9.997 M350.407 10.318 C 350.459 10.402,351.280 10.925,352.231 11.481 C 354.718 12.935,354.725 12.846,352.021 14.406 C 349.253 16.003,349.317 16.050,349.457 12.500 C 349.548 10.205,349.556 10.167,349.932 10.167 C 350.142 10.167,350.356 10.235,350.407 10.318 M364.575 19.558 C 364.521 19.773,364.507 20.241,364.544 20.599 C 364.602 21.166,364.614 21.138,364.639 20.375 C 364.676 19.215,365.436 19.308,367.191 20.689 C 367.525 20.952,367.857 21.167,367.930 21.167 C 368.320 21.167,368.815 21.889,368.644 22.208 C 368.480 22.516,364.831 24.387,364.684 24.239 C 364.647 24.202,364.563 23.702,364.498 23.128 L 364.379 22.083 364.356 23.105 C 364.321 24.690,364.453 24.716,366.789 23.594 C 369.775 22.159,369.782 22.113,367.280 20.433 C 365.272 19.085,364.737 18.912,364.575 19.558 M377.125 30.762 C 376.504 31.099,376.548 31.536,377.276 32.242 C 378.003 32.949,378.047 32.955,378.484 32.400 C 379.561 31.030,378.652 29.933,377.125 30.762 M378.405 30.929 C 378.925 31.449,378.380 32.476,377.698 32.260 C 376.926 32.015,376.826 31.126,377.538 30.840 C 378.065 30.628,378.109 30.633,378.405 30.929 M25.514 92.640 C 25.116 92.986,24.864 103.084,25.241 103.599 C 25.474 103.918,26.347 103.801,26.676 103.406 C 26.785 103.274,26.934 103.167,27.007 103.167 C 27.080 103.167,27.689 102.843,28.361 102.448 C 29.033 102.052,29.696 101.676,29.833 101.612 C 29.971 101.548,30.383 101.322,30.750 101.109 C 31.117 100.896,32.242 100.246,33.250 99.665 C 35.803 98.192,35.806 98.184,34.128 97.250 C 33.469 96.883,32.552 96.332,32.090 96.024 C 31.628 95.717,30.950 95.296,30.583 95.090 C 30.217 94.884,29.345 94.367,28.646 93.941 C 27.946 93.515,27.302 93.167,27.213 93.167 C 27.124 93.167,26.923 93.024,26.765 92.850 C 26.357 92.399,25.883 92.320,25.514 92.640 M26.667 93.083 C 26.781 93.221,26.960 93.333,27.064 93.333 C 27.169 93.333,27.644 93.596,28.121 93.917 C 28.597 94.237,29.031 94.500,29.086 94.500 C 29.140 94.500,29.949 94.976,30.884 95.557 C 33.918 97.444,34.587 97.833,34.795 97.833 C 35.242 97.833,34.960 98.337,34.242 98.822 C 33.825 99.103,33.439 99.333,33.384 99.333 C 33.330 99.333,32.677 99.699,31.934 100.146 C 27.465 102.833,25.893 103.557,25.517 103.104 C 25.325 102.873,25.400 94.320,25.603 93.292 C 25.706 92.770,26.309 92.652,26.667 93.083 M27.033 95.700 C 26.896 95.837,26.833 96.652,26.833 98.283 L 26.833 100.667 27.292 100.665 C 27.824 100.663,28.965 100.126,30.499 99.155 C 31.923 98.255,32.130 97.948,31.458 97.739 C 31.252 97.675,30.821 97.421,30.500 97.174 C 28.998 96.021,27.395 95.339,27.033 95.700 M30.278 97.270 C 30.752 97.580,31.221 97.833,31.320 97.833 C 31.640 97.833,31.512 98.134,31.042 98.486 C 30.790 98.675,30.495 98.903,30.388 98.993 C 29.744 99.530,27.586 100.474,27.385 100.307 C 27.115 100.083,27.077 96.479,27.340 95.988 C 27.531 95.630,28.247 95.943,30.278 97.270 M40.751 104.042 C 40.711 104.156,40.606 105.073,40.516 106.079 C 40.275 108.797,40.260 108.790,43.441 107.307 C 44.790 106.678,44.979 106.024,43.969 105.483 C 43.772 105.378,43.166 104.964,42.621 104.563 C 41.644 103.844,40.892 103.634,40.751 104.042 M42.945 105.072 C 43.388 105.396,43.894 105.762,44.071 105.885 C 44.574 106.236,44.299 106.573,42.970 107.229 C 40.954 108.225,40.641 108.044,40.815 105.981 C 40.983 103.988,41.289 103.858,42.945 105.072 M51.762 114.095 C 51.258 114.599,51.666 115.400,52.521 115.588 C 53.161 115.729,53.327 115.514,53.331 114.542 L 53.333 113.833 52.679 113.833 C 52.306 113.833,51.911 113.946,51.762 114.095 M53.167 114.761 C 53.167 115.330,53.144 115.352,52.626 115.302 C 51.990 115.241,51.805 114.767,52.277 114.409 C 52.846 113.978,53.167 114.105,53.167 114.761 " stroke="none" fill="#b4e49c" fill-rule="evenodd"></path><path id="path3" d="M347.401 6.359 C 347.329 6.476,347.355 6.506,347.467 6.437 C 347.729 6.275,348.617 6.680,350.341 7.746 C 351.162 8.254,351.833 8.605,351.833 8.527 C 351.833 8.306,351.294 7.886,350.833 7.747 C 350.604 7.679,350.154 7.417,349.833 7.167 C 348.674 6.263,347.667 5.929,347.401 6.359 M346.924 12.625 C 346.775 18.761,346.783 19.196,347.051 19.374 C 347.551 19.708,349.383 19.017,349.811 18.333 C 350.067 17.925,350.066 17.922,349.740 18.201 C 349.105 18.743,347.488 19.388,347.281 19.181 C 347.145 19.045,347.106 17.358,347.142 13.162 C 347.169 9.956,347.160 7.333,347.122 7.333 C 347.084 7.333,346.995 9.715,346.924 12.625 M353.984 9.902 C 355.120 10.597,356.071 11.167,356.097 11.167 C 356.332 11.167,358.221 12.457,358.357 12.710 C 358.588 13.142,358.198 13.538,356.769 14.328 C 356.183 14.652,355.152 15.227,354.477 15.605 C 353.317 16.257,351.757 17.114,350.833 17.608 C 350.463 17.807,350.454 17.831,350.755 17.832 C 350.940 17.833,351.274 17.706,351.495 17.551 C 351.717 17.396,352.278 17.071,352.741 16.830 C 353.204 16.588,353.996 16.162,354.500 15.882 C 355.004 15.602,355.904 15.107,356.500 14.782 C 359.437 13.181,359.497 12.683,356.917 11.335 C 355.386 10.536,354.751 10.169,353.583 9.406 C 353.125 9.107,352.563 8.811,352.333 8.749 C 352.104 8.687,352.847 9.206,353.984 9.902 M349.503 10.542 C 349.504 10.804,349.547 10.851,349.643 10.700 C 349.884 10.320,353.666 12.340,353.666 12.849 C 353.667 13.251,353.233 13.570,351.425 14.496 C 349.442 15.511,349.495 15.554,349.581 13.003 L 349.646 11.083 349.493 12.750 C 349.201 15.925,349.288 15.983,352.021 14.406 C 354.725 12.846,354.718 12.935,352.231 11.481 C 351.280 10.925,350.459 10.402,350.407 10.318 C 350.199 9.982,349.500 10.154,349.503 10.542 M364.496 19.094 C 364.406 19.329,364.348 20.136,364.366 20.886 L 364.399 22.250 364.450 21.083 C 364.522 19.444,364.607 19.167,365.034 19.167 C 365.467 19.167,369.167 21.615,369.167 21.902 C 369.167 22.579,365.056 24.725,364.553 24.310 C 364.319 24.116,364.291 24.120,364.362 24.333 C 364.544 24.886,364.830 24.795,368.473 23.021 C 369.431 22.554,369.598 21.569,368.790 21.149 C 368.585 21.043,368.117 20.717,367.750 20.426 C 367.121 19.926,364.981 18.667,364.760 18.667 C 364.704 18.667,364.585 18.859,364.496 19.094 M357.718 26.939 C 357.579 27.301,357.868 27.738,358.288 27.801 C 358.636 27.853,358.957 27.168,358.745 26.826 C 358.583 26.563,357.831 26.646,357.718 26.939 M355.764 28.107 C 355.533 28.709,355.858 28.910,356.158 28.350 C 356.284 28.114,356.268 28.011,356.094 27.944 C 355.966 27.895,355.817 27.968,355.764 28.107 M358.000 29.392 C 358.000 29.591,358.150 29.847,358.333 29.961 C 358.638 30.151,358.667 30.128,358.667 29.688 C 358.667 29.346,358.570 29.180,358.333 29.118 C 358.076 29.051,358.000 29.113,358.000 29.392 M376.870 30.593 C 376.183 31.074,376.775 32.833,377.624 32.833 C 377.795 32.833,377.675 32.630,377.276 32.242 C 376.243 31.239,376.836 30.345,378.393 30.554 C 378.834 30.613,378.983 30.591,378.825 30.491 C 378.441 30.248,377.276 30.309,376.870 30.593 M378.943 31.370 C 378.875 31.711,378.617 32.236,378.368 32.537 L 377.917 33.083 378.333 32.815 C 378.759 32.541,379.224 31.477,379.122 31.010 C 379.091 30.867,379.010 31.029,378.943 31.370 M25.333 92.500 C 25.135 92.699,25.001 93.052,25.003 93.375 C 25.005 93.673,24.974 96.004,24.935 98.554 C 24.896 101.105,24.905 103.150,24.957 103.099 C 25.008 103.047,25.083 100.735,25.122 97.961 C 25.190 93.251,25.216 92.898,25.513 92.640 C 25.883 92.320,26.357 92.399,26.765 92.850 C 26.923 93.024,27.124 93.167,27.213 93.167 C 27.302 93.167,27.946 93.515,28.646 93.941 C 29.345 94.367,30.254 94.901,30.667 95.129 C 31.079 95.357,31.529 95.638,31.667 95.754 C 32.260 96.255,34.563 97.513,34.248 97.164 C 34.066 96.963,33.622 96.647,33.261 96.463 C 32.900 96.279,31.985 95.725,31.228 95.231 C 30.471 94.737,29.789 94.333,29.713 94.333 C 29.638 94.333,29.202 94.090,28.746 93.792 C 28.290 93.494,27.695 93.151,27.424 93.030 C 27.153 92.908,26.830 92.665,26.706 92.488 C 26.414 92.072,25.756 92.077,25.333 92.500 M27.340 95.988 C 27.245 96.166,27.167 97.170,27.167 98.219 C 27.167 100.412,27.274 100.633,28.134 100.216 C 28.792 99.897,28.748 99.785,28.043 99.988 C 27.336 100.190,27.333 100.182,27.333 98.139 C 27.333 96.129,27.333 96.129,28.517 96.521 C 30.280 97.105,31.708 98.667,30.479 98.667 C 30.296 98.667,28.822 99.711,28.898 99.787 C 28.955 99.844,30.057 99.244,30.417 98.961 C 30.508 98.889,30.790 98.675,31.042 98.486 C 31.512 98.134,31.640 97.833,31.320 97.833 C 31.221 97.833,30.752 97.580,30.278 97.270 C 28.247 95.943,27.531 95.630,27.340 95.988 M35.143 97.815 C 35.608 98.110,35.121 98.608,33.458 99.541 C 32.518 100.068,31.525 100.649,31.250 100.832 C 30.407 101.393,30.980 101.203,32.000 100.583 C 32.528 100.263,33.011 100.000,33.072 100.000 C 33.310 100.000,35.463 98.503,35.549 98.278 C 35.647 98.023,35.378 97.665,35.092 97.669 C 34.995 97.671,35.018 97.736,35.143 97.815 M30.167 101.417 C 30.053 101.554,29.896 101.667,29.818 101.667 C 29.740 101.667,29.130 101.989,28.463 102.383 C 27.796 102.777,27.137 103.156,27.000 103.225 C 25.699 103.876,25.564 103.984,26.033 103.992 C 26.281 103.996,26.546 103.887,26.623 103.750 C 26.700 103.612,27.023 103.363,27.340 103.196 C 30.033 101.779,31.004 101.167,30.556 101.167 C 30.456 101.167,30.281 101.279,30.167 101.417 M40.678 103.903 C 40.571 104.033,40.417 104.768,40.338 105.537 C 40.259 106.307,40.144 107.201,40.083 107.526 C 39.936 108.308,40.323 108.732,41.039 108.575 C 42.248 108.309,44.677 106.998,44.654 106.623 C 44.643 106.462,44.622 106.461,44.558 106.621 C 44.480 106.814,43.299 107.421,41.694 108.094 C 40.405 108.634,40.238 108.112,40.642 104.800 C 40.811 103.416,42.103 103.772,44.292 105.806 C 44.498 105.998,44.667 106.082,44.667 105.994 C 44.667 105.818,44.449 105.610,43.347 104.732 C 42.022 103.678,41.102 103.392,40.678 103.903 M52.337 113.670 C 50.980 113.990,50.801 115.331,52.083 115.578 C 52.505 115.659,52.526 115.649,52.219 115.513 C 51.084 115.011,51.413 113.833,52.688 113.833 C 53.089 113.833,53.312 113.767,53.250 113.667 C 53.135 113.481,53.143 113.481,52.337 113.670 M53.361 114.528 C 53.346 114.864,53.290 115.277,53.237 115.445 C 53.147 115.732,53.153 115.733,53.331 115.455 C 53.435 115.293,53.490 114.881,53.455 114.539 L 53.389 113.917 53.361 114.528 " stroke="none" fill="#c4faa6" fill-rule="evenodd"></path><path id="path4" d="M0.000 0.678 L 0.000 1.356 1.292 1.263 C 6.473 0.887,15.517 0.500,19.135 0.500 C 22.126 0.500,24.667 0.335,24.667 0.142 C 24.667 0.064,19.117 0.000,12.333 0.000 L 0.000 0.000 0.000 0.678 M347.226 5.969 C 346.903 6.180,346.800 7.721,346.763 12.917 C 346.736 16.623,346.759 17.400,346.842 15.667 C 346.906 14.338,346.972 11.938,346.988 10.333 C 347.036 5.772,347.459 5.305,349.843 7.178 C 350.170 7.435,350.639 7.695,350.888 7.758 C 351.136 7.820,351.472 8.040,351.634 8.246 C 351.796 8.453,352.114 8.680,352.340 8.751 C 352.911 8.931,351.658 7.915,350.488 7.250 C 350.004 6.975,349.340 6.592,349.012 6.399 C 348.340 6.004,347.488 5.798,347.226 5.969 M353.416 9.292 C 354.267 9.882,355.256 10.458,356.917 11.331 C 359.496 12.687,359.437 13.181,356.500 14.782 C 355.904 15.107,355.004 15.598,354.500 15.873 C 353.194 16.586,352.857 16.833,353.193 16.833 C 353.339 16.833,353.546 16.729,353.652 16.602 C 353.757 16.474,354.205 16.215,354.646 16.025 C 355.087 15.835,355.544 15.564,355.661 15.423 C 355.778 15.282,355.988 15.167,356.127 15.167 C 356.266 15.167,356.763 14.934,357.232 14.649 C 359.321 13.379,359.594 12.501,358.125 11.771 C 357.644 11.532,356.837 11.099,356.333 10.810 C 355.829 10.521,355.192 10.160,354.917 10.009 C 354.642 9.858,354.099 9.532,353.712 9.284 C 352.790 8.695,352.565 8.701,353.416 9.292 M349.597 10.774 C 349.539 10.924,349.531 11.087,349.579 11.135 C 349.627 11.183,349.667 11.135,349.667 11.028 C 349.667 10.620,350.178 10.818,352.540 12.140 C 353.841 12.868,353.770 13.110,352.000 13.975 C 351.496 14.222,350.888 14.555,350.648 14.715 C 349.829 15.266,349.669 14.997,349.746 13.193 L 349.815 11.583 349.657 13.222 C 349.435 15.515,349.435 15.515,351.422 14.497 C 354.434 12.954,354.414 12.778,351.032 11.103 C 349.613 10.400,349.730 10.427,349.597 10.774 M376.669 16.613 C 376.672 17.572,376.903 18.060,377.168 17.667 C 377.452 17.246,377.298 15.929,376.958 15.864 C 376.713 15.818,376.667 15.936,376.669 16.613 M380.000 16.764 C 380.000 17.001,380.081 17.168,380.179 17.135 C 380.278 17.102,380.353 17.021,380.346 16.954 C 380.339 16.888,380.333 16.721,380.333 16.583 C 380.333 16.446,380.258 16.333,380.167 16.333 C 380.075 16.333,380.000 16.527,380.000 16.764 M351.833 17.333 C 351.421 17.608,351.178 17.832,351.293 17.833 C 351.408 17.833,351.813 17.608,352.193 17.333 C 353.088 16.685,352.809 16.685,351.833 17.333 M349.783 18.402 C 348.654 19.608,346.901 19.786,346.788 18.708 L 346.723 18.083 346.695 18.796 C 346.670 19.418,346.720 19.529,347.090 19.669 C 347.707 19.904,349.696 19.111,350.067 18.483 C 350.217 18.230,350.506 17.990,350.711 17.951 L 351.083 17.879 350.700 17.856 C 350.459 17.842,350.118 18.045,349.783 18.402 M377.333 18.240 C 377.333 19.040,377.991 19.893,378.354 19.565 C 378.815 19.148,378.761 18.667,378.253 18.667 C 377.951 18.667,377.812 18.554,377.735 18.250 C 377.601 17.716,377.333 17.709,377.333 18.240 M364.508 18.741 C 364.394 18.877,364.340 19.085,364.388 19.203 C 364.443 19.341,364.478 19.317,364.487 19.135 C 364.518 18.473,366.063 19.085,367.750 20.426 C 368.117 20.717,368.585 21.043,368.790 21.149 C 369.658 21.600,369.437 22.512,368.313 23.113 C 367.820 23.376,367.697 23.500,367.928 23.500 C 368.114 23.500,368.350 23.416,368.453 23.314 C 368.555 23.212,368.812 23.041,369.025 22.935 C 369.820 22.539,369.843 21.496,369.067 21.080 C 368.893 20.986,368.450 20.706,368.083 20.457 C 365.200 18.497,364.850 18.329,364.508 18.741 M364.108 22.379 C 363.956 24.492,364.042 24.833,364.729 24.833 C 365.132 24.833,367.579 23.690,367.450 23.561 C 367.404 23.515,366.842 23.752,366.202 24.088 C 364.455 25.003,364.433 24.985,364.333 22.498 L 364.250 20.417 364.108 22.379 M357.192 27.062 C 356.714 27.461,356.403 27.602,356.116 27.547 C 355.815 27.489,355.691 27.555,355.625 27.808 C 355.546 28.110,354.896 28.616,353.208 29.689 C 352.448 30.172,352.769 31.167,353.685 31.167 C 353.844 31.167,354.186 31.342,354.446 31.557 C 355.142 32.134,358.676 33.819,358.960 33.710 C 359.156 33.635,359.184 33.399,359.101 32.517 C 358.955 30.972,358.943 27.836,359.081 27.305 C 359.320 26.381,358.182 26.235,357.192 27.062 M358.745 26.826 C 358.957 27.168,358.636 27.853,358.288 27.801 C 357.868 27.738,357.579 27.301,357.718 26.939 C 357.831 26.646,358.583 26.563,358.745 26.826 M356.158 28.350 C 355.982 28.678,355.667 28.783,355.667 28.514 C 355.667 28.145,355.879 27.861,356.094 27.944 C 356.268 28.011,356.284 28.114,356.158 28.350 M357.784 29.410 C 357.801 30.185,357.891 30.963,357.985 31.139 C 358.472 32.048,357.207 32.152,355.974 31.304 C 355.731 31.137,355.421 31.000,355.284 31.000 C 355.148 31.000,354.860 30.848,354.643 30.662 L 354.250 30.324 354.667 30.037 C 354.896 29.879,355.255 29.581,355.466 29.375 C 355.676 29.169,355.901 28.997,355.966 28.993 C 356.030 28.990,356.343 28.765,356.660 28.493 C 357.614 27.678,357.749 27.788,357.784 29.410 M358.667 29.688 C 358.667 30.128,358.638 30.151,358.333 29.961 C 358.150 29.847,358.000 29.591,358.000 29.392 C 358.000 29.113,358.076 29.051,358.333 29.118 C 358.570 29.180,358.667 29.346,358.667 29.688 M376.684 30.484 C 376.072 31.055,376.049 31.282,376.521 32.081 C 377.471 33.692,378.823 33.463,379.203 31.627 C 379.536 30.021,377.950 29.301,376.684 30.484 M378.905 30.595 C 379.212 30.903,379.222 31.044,378.993 31.870 C 378.565 33.411,376.500 32.963,376.500 31.330 C 376.500 30.451,378.231 29.922,378.905 30.595 M25.500 91.949 C 25.054 92.108,24.833 92.549,24.852 93.240 L 24.872 93.917 24.997 93.264 C 25.195 92.236,26.208 91.777,26.706 92.488 C 26.830 92.665,27.153 92.904,27.424 93.020 C 27.695 93.136,28.029 93.322,28.167 93.432 C 28.608 93.786,30.363 94.683,30.247 94.495 C 30.185 94.395,29.973 94.239,29.775 94.149 C 29.382 93.970,29.102 93.803,28.045 93.122 C 27.657 92.871,27.265 92.667,27.174 92.667 C 27.082 92.667,26.885 92.479,26.735 92.250 C 26.473 91.850,26.059 91.749,25.500 91.949 M24.899 96.333 C 24.899 97.571,24.925 98.077,24.957 97.458 C 24.989 96.840,24.989 95.827,24.957 95.208 C 24.925 94.590,24.899 95.096,24.899 96.333 M30.853 94.974 C 31.071 95.143,31.775 95.588,32.417 95.962 C 33.058 96.337,33.802 96.818,34.070 97.030 C 34.693 97.526,35.667 98.013,35.667 97.830 C 35.667 97.753,35.514 97.641,35.328 97.582 C 35.142 97.523,34.785 97.285,34.536 97.053 C 34.287 96.821,33.671 96.414,33.167 96.148 C 32.142 95.607,31.770 95.383,31.188 94.958 C 30.654 94.568,30.346 94.583,30.853 94.974 M27.333 98.139 C 27.333 99.132,27.374 99.986,27.425 100.036 C 27.583 100.194,28.733 99.828,29.167 99.480 L 29.583 99.147 29.031 99.417 C 28.727 99.565,28.277 99.663,28.031 99.635 L 27.583 99.583 27.609 98.167 L 27.634 96.750 28.209 96.784 C 29.215 96.843,30.908 97.974,30.563 98.356 C 30.408 98.527,30.357 98.667,30.448 98.667 C 31.704 98.667,30.307 97.114,28.517 96.521 C 27.333 96.129,27.333 96.129,27.333 98.139 M35.500 98.324 C 35.500 98.577,33.747 99.675,31.201 101.016 C 30.899 101.175,30.561 101.377,30.451 101.465 C 30.269 101.610,28.792 102.432,27.359 103.187 C 27.052 103.348,26.708 103.608,26.594 103.764 C 26.434 103.983,26.250 104.021,25.783 103.934 C 25.020 103.791,24.956 103.679,24.824 102.253 L 24.716 101.083 24.694 102.250 C 24.658 104.129,25.743 104.989,26.693 103.836 C 26.846 103.651,27.084 103.500,27.223 103.500 C 27.362 103.500,27.575 103.402,27.696 103.282 C 27.818 103.163,28.254 102.884,28.667 102.663 C 29.079 102.442,30.038 101.902,30.797 101.464 C 31.556 101.025,32.240 100.667,32.318 100.667 C 32.396 100.667,32.553 100.554,32.667 100.417 C 32.781 100.279,33.004 100.167,33.163 100.167 C 33.322 100.167,33.782 99.915,34.184 99.608 C 34.587 99.300,35.085 98.995,35.292 98.930 C 35.606 98.830,35.860 98.167,35.583 98.167 C 35.537 98.167,35.500 98.238,35.500 98.324 M24.885 99.583 C 24.886 100.133,24.917 100.338,24.954 100.039 C 24.991 99.739,24.990 99.289,24.952 99.039 C 24.914 98.788,24.884 99.033,24.885 99.583 M51.167 100.907 C 51.167 101.450,51.439 101.592,51.666 101.168 C 51.873 100.782,51.763 100.500,51.407 100.500 C 51.263 100.500,51.167 100.664,51.167 100.907 M52.262 100.649 C 51.964 100.766,51.962 100.783,52.234 100.888 C 52.650 101.047,53.297 101.027,53.406 100.851 C 53.589 100.554,52.842 100.422,52.262 100.649 M54.051 101.274 C 53.958 101.516,54.364 102.000,54.658 102.000 C 54.929 102.000,55.193 101.286,54.974 101.147 C 54.612 100.917,54.164 100.979,54.051 101.274 M51.833 102.500 C 51.833 102.811,51.878 102.856,52.033 102.700 C 52.189 102.544,52.189 102.456,52.033 102.300 C 51.878 102.144,51.833 102.189,51.833 102.500 M53.444 102.694 C 53.326 103.146,53.399 103.241,53.755 103.104 C 54.049 102.992,54.031 102.482,53.730 102.382 C 53.627 102.348,53.498 102.488,53.444 102.694 M52.333 103.750 C 52.333 104.437,52.675 104.533,53.077 103.958 C 53.318 103.615,53.316 103.566,53.055 103.375 C 52.556 103.011,52.333 103.127,52.333 103.750 M40.548 103.542 C 40.353 103.798,40.051 105.495,39.904 107.172 C 39.724 109.225,40.267 109.363,43.071 107.981 C 45.524 106.772,45.730 106.136,44.038 105.000 C 43.696 104.771,43.267 104.446,43.083 104.277 C 42.227 103.491,40.885 103.101,40.548 103.542 M42.147 103.906 C 42.569 104.125,43.640 104.927,44.375 105.576 C 45.206 106.310,44.573 107.122,42.435 108.068 C 40.569 108.893,39.857 108.729,40.083 107.526 C 40.144 107.201,40.259 106.307,40.338 105.537 C 40.533 103.649,40.940 103.282,42.147 103.906 M34.184 110.590 C 33.780 110.820,33.218 111.239,32.934 111.520 C 32.649 111.801,31.949 112.260,31.378 112.540 C 29.835 113.298,29.841 114.145,31.393 114.427 L 32.036 114.544 31.922 114.024 C 31.759 113.283,32.258 112.653,33.305 112.276 C 34.525 111.838,34.778 112.023,34.911 113.457 C 34.969 114.076,35.087 114.714,35.175 114.873 C 35.262 115.032,35.333 115.201,35.333 115.248 C 35.333 115.458,34.344 115.303,33.750 115.000 C 32.929 114.581,32.667 114.579,32.667 114.992 C 32.667 115.225,32.840 115.365,33.274 115.485 C 33.607 115.577,34.039 115.796,34.232 115.970 C 35.323 116.955,36.363 115.855,35.840 114.270 C 35.732 113.944,35.620 112.968,35.590 112.102 C 35.517 109.943,35.447 109.868,34.184 110.590 M52.000 113.487 C 50.655 114.028,50.494 115.703,51.792 115.656 C 52.023 115.648,52.009 115.615,51.723 115.500 C 50.949 115.188,51.176 113.954,52.044 113.752 C 53.067 113.513,53.233 113.562,53.444 114.167 C 53.623 114.678,53.649 114.698,53.657 114.329 C 53.680 113.296,53.147 113.025,52.000 113.487 M53.333 115.472 C 53.333 115.579,53.090 115.669,52.792 115.672 C 52.279 115.677,52.268 115.691,52.574 115.922 C 52.751 116.057,52.940 116.167,52.992 116.167 C 53.150 116.167,53.530 115.474,53.428 115.373 C 53.376 115.320,53.333 115.365,53.333 115.472 " stroke="none" fill="#c9e6ca" fill-rule="evenodd"></path></g></svg>